<svg height="1024pt" preserveAspectRatio="xMidYMid meet" viewBox="0 0 1024 1024" width="1024pt" xmlns="http://www.w3.org/2000/svg"><g transform="matrix(.1 0 0 -.1 0 1024)"><path d="m3620 7883c-24-17-297-257-471-415l-86-78h-89c-57 0-94-4-102-12s-12-63-12-183c0-210-3-205 118-205 78 0 88-3 172-45 49-25 96-45 104-45 19 0 35 28 29 51-3 11-2 39 1 64 6 39 10 45 32 45s24 4 24 45c0 43-1 45-30 45h-30v65 65h39c31 0 40 4 44 22 8 31-10 48-49 48-27 0-34 4-34 20s-7 20-37 20l-38 1 65 57c35 31 118 106 185 165 66 60 121 103 122 95 2-7-14-80-35-163l-38-150-42-3c-70-5-72-12-72-284 0-231 1-238 22-258 12-11 34-20 50-20h28v-281-280l48 3 47 3 3 43c2 26 9 45 17 49 8 3 53-21 100-53l85-58v-207c0-235 2-243 69-237l36 3 3 508 2 507h24c13 0 35 9 49 21l27 20 2 202 3 202 143 3c78 1 142 0 142-3 0-2-20-32-45-64-46-60-46-60-103-63l-57-3-3-46c-3-45-2-47 29-53 17-3 193-6 390-6h359v-70c0-65 2-72 34-107 30-35 33-43 31-95-2-49-7-62-36-96-19-22-46-55-61-75s-54-56-87-81c-52-40-66-46-109-46-62 0-87-24-87-84v-41l-63-5c-94-8-92-1-92-277v-234l25-24 24-25h546 547l29 29 29 29v222 222l-29 29c-26 25-37 29-85 29h-56v43c0 59-30 87-90 87-35 0-57 9-113 47-38 26-83 64-101 86-17 22-46 56-63 77-29 33-33 44-33 95 0 52 4 61 35 96 32 36 35 44 35 103v63l205 5c270 8 255-2 255 164 0 119-1 126-25 149-17 18-35 25-62 25-21 0-96 18-168 39-71 22-238 71-370 110-132 38-323 94-425 124-102 31-302 89-445 131-143 41-289 85-325 96-79 24-79 24-110 3zm410-192c213-63 592-173 1010-293 38-11-28-13-458-16-435-2-503-4-508-17-9-23-64-18-91 7-16 15-38 23-69 24-25 1-47 4-49 6-4 4-115 355-115 364 0 8 19 3 280-75zm-310-149c22-70 40-133 40-140 0-8-22-12-73-12-41 0-76 3-79 6s9 64 28 136c19 73 34 133 34 135s2 3 5 3c2 0 23-58 45-128zm170-427v-175h-195-195v170 169l103 4c56 1 144 4 195 5l92 2zm758 147c-7-10-31-39-53-65-35-42-43-47-82-47-41 0-43 2-78 61-19 33-35 62-35 65 0 2 59 4 131 4 124 0 129-1 117-18zm365-46c-45-61-51-65-88-65-36 0-44 4-75 46-71 93-80 83 74 83h136zm427-1v-65h-187l-186 1 27 27c22 23 28 25 36 12 8-12 10-12 10 4 0 11 5 35 12 53l12 33h138 138zm-662-70c-3-3-29-5-58-3l-53 3 28 33 28 34 31-31c16-17 27-33 24-36zm-408 3c0-5-18-8-40-8-46 0-48 5-18 37l22 24 18-23c10-13 18-26 18-30zm628-104c19-6 22-13 22-55v-49h-45-45v48c0 64 9 71 68 56zm-1208-279v-66l-30 16c-16 8-42 15-57 15s-37 7-47 15c-11 8-30 15-43 15-20 0-23 5-23 35v35h100 100zm0-180c0-55-3-65-17-65-10 0-33-9-51-20-25-16-37-18-52-10-14 7-26 8-39 0-37-19-41-12-41 70 0 44 3 80 7 80 3 0 21-11 39-25 42-32 62-32 110 4 21 16 40 30 42 30 1 1 2-28 2-64zm1332-118c-7-5-77-5-156-1l-144 7 29 25c16 13 50 51 75 83l45 58 82-82c58-58 78-84 69-90zm-1336-94c-3-3-17 4-31 15l-26 21 28 15c28 14 28 14 31-16 2-16 1-32-2-35zm1524-23v-30h-177c-214 0-213 1-213-102v-68l-212 2-213 3-3 43-3 42h70c91 0 105 13 96 87l-6 53h330 331zm170-290v-170h-225-225v170 170h225 225zm-560-80v-90h-215-215v83c0 46 3 87 7 90 3 4 100 7 215 7h208z"/><path d="m3592 7164c-31-21-30-69 3-90 20-13 40-15 112-9 48 4 94 12 101 17 18 15 15 63-6 81-26 23-177 24-210 1z"/><path d="m6535 7081c-74-18-155-55-155-70 0-19 85-71 150-90 106-33 203-104 264-195 33-50 33-56-4-56-22 0-33-6-39-21-7-21-9-20-31 12-42 62-124 140-174 166-39 20-154 52-189 53-5 0 0 14 10 30 17 30 17 30-9 57l-27 27-48-40c-94-79-185-215-209-308-6-24-4-27 12-23 11 3 38 11 62 17 25 6 42 17 42 25 0 28 88 22 157-11 79-38 157-136 178-226 7-28 7-28-42-28s-50 1-61 38c-26 87-114 162-190 162-17 0-57-7-88-15s-60-12-64-10c-18 11-32-30-37-105l-6-80h-43c-77 0-129-77-87-129 19-23 19-23 258-22 131 1 242 4 246 7 5 3 28-6 51-18 41-22 53-23 326-26s284-3 319 18c33 19 48 21 192 18 184-3 201 2 201 61 0 55-38 91-96 91h-42l-7 68c-14 142-69 292-146 394-80 107-225 201-361 233-83 20-226 18-313-4zm372-147c98-47 190-139 238-237 34-70 65-194 65-263v-34h-54-53l-6 73c-9 97-31 169-77 248-49 83-118 160-195 217-58 44-59 45-25 38 19-3 68-22 107-42zm-25-386c9-26 20-69 24-97l7-51h-56-55l-7 52c-4 29-14 70-21 92-8 21-14 41-14 45 0 3 24 6 52 6h52z"/><path d="m2758 6184c-41-22-47-51-48-211v-153l183-2c100-1 314-1 476 0 258 2 297 4 313 19 16 14 18 34 18 163 0 145 0 147-26 171l-26 24h-434c-300 0-442-3-456-11z"/><path d="m5890 6140c-18-18-20-33-20-159v-139l83-7c45-4 148-5 228-3 195 4 189-1 189 165 0 173 16 163-250 163-197 0-211-1-230-20z"/><path d="m7130 6150c-30-4-97-19-148-34-85-26-103-28-215-24-96 4-138 10-195 30-63 21-75 23-92 11-18-13-20-26-20-132 0-102 3-122 19-142l19-24 521-2 521-2v148c0 131-2 150-18 164-16 15-42 17-178 16-87-1-184-5-214-9z"/><path d="m5870 5577c0-156 2-176 18-190 17-15 63-17 461-17h442l24 25c24 23 25 29 25 165s-1 142-25 165l-24 25h-461-460z"/><path d="m6955 5725c-24-23-25-28-25-169 0-200-23-186 309-186 216 0 260 2 279 16 21 15 22 21 22 190v174h-280-281z"/><path d="m2714 5717c-2-7-3-94-2-192l3-180 207-3c267-3 248-18 248 193 0 209 18 195-247 195-157 0-205-3-209-13z"/><path d="m3295 5705c-24-23-25-29-25-159 0-145 8-177 47-195 16-7 163-11 464-11h440l24 25c24 23 25 28 25 170s-1 147-25 170l-24 25h-451-451z"/><path d="m6181 5254c-19-24-21-40-21-171 0-139 1-145 25-168l24-25h551 551l48-25c82-41 148-134 152-211 0-14 4-11 14 11 11 23 14 94 15 306 0 255-1 277-18 292s-78 17-670 17h-651z"/><path d="m4966 5244c-26-26-26-28-26-174 0-141 1-147 24-169l24-22 515 3c490 3 516 4 536 22s21 29 21 173c0 140-2 155-20 173-19 19-33 20-534 20h-513z"/><path d="m3810 5252c-47-15-50-28-50-187 0-145 1-152 23-173 23-22 24-22 513-22 427 0 492 2 512 16 21 15 22 21 22 179 0 163 0 165-24 180-22 14-80 16-503 14-263-1-485-4-493-7z"/><path d="m2731 5224c-19-25-21-40-21-190v-164h454 455l20 26c19 24 21 40 21 170 0 131-2 146-20 164-19 19-33 20-454 20h-435z"/><path d="m5425 4774c-24-26-25-32-25-175v-147l32-27 31-27 746 7 746 6 20 22c19 21 21 35 19 177-1 147-2 154-23 172-22 17-60 18-773 18h-749z"/><path d="m7169 4775c-51-28-59-53-59-191v-127l74 6c116 9 196 62 214 142 16 74-13 136-80 171-34 18-115 17-149-1z"/><path d="m3040 4770-325-5v-155-155l283-3 282-2v38c0 53 35 102 93 131l47 23v63c0 63-10 79-43 73-7-2-158-5-337-8z"/><path d="m3530 4771-35-6-3-62c-3-57-1-62 20-68 32-10 85-51 106-83 9-14 19-51 22-82l5-55h100 100l5 55c7 72 35 118 90 148 37 19 55 23 98 18 30-2 64-12 78-21l24-15v59c0 121-1 121-322 120-139-1-269-4-288-8z"/><path d="m4250 4760c-11-11-20-26-20-32-1-7-1-76 0-153 0-129 2-141 21-157 20-17 59-18 505-18 429 0 488 2 509 16 25 16 25 18 25 170 0 141-2 156-20 174-19 19-33 20-510 20s-491-1-510-20z"/><path d="m3408 4544c-15-8-32-23-38-34-6-12-10-268-10-744v-726h-306-306l-29 29-29 29v186 186l297 2 297 3 8 30c4 17 4 44 0 60l-8 30-297 3-297 2v311 311l58-7c31-4 159-9 284-11l226-5 20 28c19 27 19 30 3 73l-17 45-343 3c-310 2-346 1-363-14-17-16-18-47-18-628v-611l29-61c32-67 73-105 140-129 39-13 318-15 2405-15 2652 0 2430-7 2511 75 76 76 75 63 75 764 0 601 0 616-21 657-31 65-69 84-167 84-77 0-84-2-141-39-33-21-89-47-125-57s-66-22-66-26c0-5 83-8 185-8h185v-41c0-33-3-40-16-35-9 3-34 9-57 12-23 4-49 10-57 14s-736 11-1617 15l-1603 7-10-26c-10-27-17-30-44-20-13 5-16 25-16 115 0 98-2 110-22 134-42 47-123 50-164 4-16-18-20-40-22-135-4-113-4-114-28-114-14 0-30 10-40 25-16 24-21 25-114 25-86 0-99-2-111-20-8-11-25-21-39-22l-25-3-2 100c-4 129-7 142-46 165-38 23-72 25-109 4zm780-331c2-25 9-34 25-37 12-3 732-8 1600-11 1464-6 1580-5 1604 10 20 13 37 16 79 10l54-6v-290-289h-1680c-1443 0-1680-2-1680-14 0-17-18-25-42-18-17 4-18 29-18 337 1 183 4 335 7 339 4 4 16 6 28 4 15-2 21-12 23-35zm-264-50c3-42 6-312 6-600v-523h-185-185v595 595h29c20 0 30-6 34-20 5-18 14-20 111-20 102 0 106 1 122 25 9 14 26 25 39 25 20 0 23-6 29-77zm262-658 6-35h1679 1679v-181c0-104-4-188-10-200-28-52 62-49-1740-49h-1670v244c0 249 1 253 37 255 7 1 15-15 19-34z"/><path d="m4190 3985c-23-28 5-45 75-45 71 0 97 16 70 44-22 22-127 22-145 1z"/><path d="m4594 3975c-9-22 4-35 36-35 34 0 47 15 30 35-16 19-59 19-66 0z"/><path d="m5065 3982c-31-6-40-19-25-37s64-20 78-2c20 23-13 47-53 39z"/><path d="m6105 3976c-15-10-15-14-2-24 17-14 47-6 47 13s-26 25-45 11z"/><path d="m5440 3966c0-15 24-28 34-19 13 14 5 33-14 33-11 0-20-6-20-14z"/><path d="m6582 3963c4-20 63-30 87-14 24 15 1 31-45 31-38 0-45-3-42-17z"/><path d="m5800 3960c0-5 7-10 15-10s15 5 15 10c0 6-7 10-15 10s-15-4-15-10z"/><path d="m7074 3866c-9-24 4-48 23-44 12 2 18 12 18 28 0 29-32 41-41 16z"/><path d="m6036 3852c-2-4-1-14 4-22 7-11 12-12 21-3 6 6 8 16 5 22-8 13-23 14-30 3z"/><path d="m5082 3836c1-10 8-17 13-17 15 1 12 24-3 29-9 3-13-2-10-12z"/><path d="m5462 3828c-22-22 7-38 68-38 58 0 89 17 75 40-9 14-128 13-143-2z"/><path d="m5807 3834c-21-21-5-34 44-34 43 0 50 3 47 18-2 12-14 18-43 20-23 2-44 0-48-4z"/><path d="m6330 3824c0-17 22-14 28 4 2 7-3 12-12 12s-16-7-16-16z"/><path d="m6585 3830c-3-5 0-13 8-16 23-8 92 0 92 11 0 14-92 19-100 5z"/><path d="m4247 3823c-4-3-7-12-7-20 0-9 15-13 50-13 43 0 50 3 50 20s-7 20-43 20c-24 0-47-3-50-7z"/><path d="m4421 3821c-19-12-4-31 25-31 27 0 33 24 8 34-19 7-16 8-33-3z"/><path d="m3727 4103c-4-3-7-28-7-54v-48l-47-3c-40-3-48-6-48-23 0-29 88-43 183-29 23 3 45 10 48 15 10 17-17 39-47 39-27 0-29 3-29 39 0 22-3 46-6 55-6 16-35 22-47 9z"/><path d="m3688 3827c-66-14-61-47 7-47 22 0 24-5 27-57 3-54 5-58 28-58s25 4 28 58c3 55 4 57 31 57 35 0 57 22 39 38-20 16-108 21-160 9z"/><path d="m3625 3546c-4-30-4-59 0-65 4-7 48-11 115-11h109l7 37c4 20 3 48-2 62-9 26-11 26-116 29l-106 3z"/><path d="m3732 3388c-7-7-12-36-12-65v-53h-32c-42 0-63-13-55-34 4-11 19-16 46-16h40l3-62c3-60 4-63 28-63s25 3 28 63c3 56 5 62 25 62 29 0 51 15 43 29-4 6-20 11-37 11-29 0-29 0-29 58 0 51-11 82-30 82-3 0-11-5-18-12z"/><path d="m5833 3265c-10-8-13-19-9-33 7-20 14-22 80-22 54 0 77 4 86 16 11 12 11 17-1 28-18 18-135 26-156 11z"/><path d="m4204 3255c-14-36 3-45 84-45 85 0 108 11 91 42-8 15-22 18-90 18-62 0-81-3-85-15z"/><path d="m4687 3264c-14-14-7-45 12-52 11-4 48-5 83-2 59 5 63 7 63 30 0 24-2 25-75 28-42 1-79 0-83-4z"/><path d="m5074 3255c-15-37 2-46 83-43 76 3 78 4 78 28s-2 25-78 28c-62 2-78 0-83-13z"/><path d="m5455 3260c-3-5-3-19 0-31 6-18 14-20 78-17 69 3 72 4 72 28s-3 25-72 28c-42 2-74-1-78-8z"/><path d="m6211 3256c-6-7-9-21-5-30 5-13 21-16 79-16 77 0 91 7 80 40-6 17-15 20-74 20-46 0-72-5-80-14z"/><path d="m6585 3250c-4-7-3-16 3-22 14-14 47-6 47 12s-40 26-50 10z"/><path d="m6660 3240c0-5 7-10 15-10s15 5 15 10c0 6-7 10-15 10s-15-4-15-10z"/><path d="m3133 4003c-18-7-16-40 3-47 33-13 141-6 154 9 24 29-5 45-79 44-36 0-72-3-78-6z"/><path d="m2840 3986c0-8 6-16 13-19 19-7 41 8 33 22-10 16-46 14-46-3z"/><path d="m3130 3825c-7-8-10-22-6-30 4-12 24-15 89-15 93 0 118 12 90 42-21 24-154 26-173 3z"/><path d="m2816 3821c-10-15 21-33 51-29 17 2 29 10 31 21 3 14-4 17-37 17-22 0-42-4-45-9z"/><path d="m3125 3260c-3-6-3-19 0-30 6-18 15-20 85-20s79 2 85 20c11 33-3 40-85 40-43 0-82-5-85-10z"/><path d="m2842 3243c2-13 12-18 33-18 43 0 40 29-3 33-28 3-33 0-30-15z"/></g></svg>