<svg height="1024pt" preserveAspectRatio="xMidYMid meet" viewBox="0 0 1536 1024" width="1536pt" xmlns="http://www.w3.org/2000/svg"><g transform="matrix(.1 0 0 -.1 0 1024)"><path d="m3845 6867c-49-44-189-168-309-276-121-108-332-297-470-421-137-124-281-252-319-285l-69-59 25-21c13-11 125-103 247-205 123-102 253-210 291-240 37-30 100-82 141-115 40-33 143-117 230-187l156-128h97 97l-54 42c-147 115-503 403-738 598-90 74-196 161-237 194-40 32-73 61-72 65 0 3 30 31 66 61s127 111 202 180 237 215 361 324 274 242 334 295 112 96 116 96 74-58 156-130c567-494 771-673 873-763l115-103 41 41 40 41-25 21c-14 11-46 40-72 64l-48 45v352 352h-223-222l-3-152c-1-84-6-153-11-153-4 0-16 10-27 21-29 32-483 433-584 515-12 10-30-2-105-69zm1055-512c0-131-2-240-3-241s-47 38-102 87l-100 89-5 151c-3 83-3 153-1 155 3 3 52 3 109 2l103-3z"/><path d="m3658 6429c-150-133-296-263-324-288-27-25-110-100-182-165-73-65-131-124-129-129 2-6 11-15 20-21 14-9 26-1 69 41 29 28 134 122 234 209 99 88 240 213 313 279 208 187 275 245 283 242 7-2 387-330 587-505 341-300 307-273 326-252 17 18 15 21-41 73-33 30-85 76-116 103-56 49-577 500-693 602-33 28-63 52-67 52s-130-109-280-241z"/><path d="m3790 5836c0-3 353-297 585-486 51-41 136-111 190-155 196-162 241-198 303-248 61-48 63-51 45-67-10-10-115-103-234-206-119-104-339-297-490-429s-281-246-290-253c-14-10-32 2-125 79-60 51-183 153-273 228-91 75-223 186-295 246-72 61-145 121-162 135s-97 80-177 148l-147 123-45-37c-25-20-45-38-45-39 0-4 175-151 600-505 201-167 431-358 511-426l147-122 508 446c280 244 556 486 612 535l104 91-44 38c-46 41-161 135-373 307-71 58-222 182-335 276-113 93-249 205-301 248l-96 77h-86c-48 0-87-2-87-4z"/><path d="m8130 5405v-235h55c51 0 55 2 61 26 4 14 4 77 2 139l-5 114 81-61c44-34 122-94 171-134 88-71 137-99 149-87 3 4 6 109 6 235v228h-60-60v-130c0-71-3-130-6-130s-38 26-77 58c-125 102-280 212-299 212-17 0-18-15-18-235z"/><path d="m12730 5406v-236h60 59l3 136 3 137 75-60c165-131 293-224 304-220 8 3 12 74 14 235l2 232h-60-60v-135-135l-72 58c-155 124-274 211-300 217l-28 7z"/><path d="m5556 5618c5-7 58-89 119-183 61-93 124-191 140-217 52-84 43-93 280 276 31 49 64 100 72 113l15 23h-69-70l-88-141-88-141-91 141-91 141h-68c-52 0-66-3-61-12z"/><path d="m6373 5611c-50-23-73-63-73-123s18-89 70-115c39-20 59-23 177-23 121 0 133-2 143-19 13-25 13-27-6-46-14-13-43-16-198-14l-181 1-3-51-3-51h195c218 0 259 9 298 62 31 44 29 129-3 165-41 44-77 53-217 53-136 0-152 5-152 47 0 13 1 24 3 25 1 1 88 4 192 7l190 6 3 48 3 47h-198c-173 0-203-3-240-19z"/><path d="m7107 5616c-82-30-97-61-97-208 0-139 17-184 76-214 34-16 66-19 237-22l198-3-3 53-3 53-183 5c-148 4-185 8-192 20-5 8-10 54-10 103 0 129-4 127 215 127h175v50 50h-187c-131-1-199-5-226-14z"/><path d="m7666 5620c-41-13-84-58-96-99-12-45-13-183-1-235 12-48 51-90 100-105 21-6 94-11 163-11 109 0 129 3 168 23 72 36 85 69 85 214 0 140-9 162-85 201-40 20-58 22-175 21-71 0-143-5-159-9zm290-114c9-13 14-47 14-103 0-70-3-86-20-103-23-23-15-22-140-20-127 2-130 5-130 126 0 123 4 126 153 122 94-3 111-6 123-22z"/><path d="m8763 5611c-50-23-73-63-73-123s18-89 70-115c39-20 59-23 177-23 124 0 133-1 143-21 9-16 8-25-6-40-16-18-30-19-198-17l-181 3-3-53-3-53 208 3c226 3 248 8 287 61 31 42 29 127-4 162-42 45-60 49-214 55-127 4-150 8-160 23-8 12-8 22 0 35 10 15 33 17 203 20l191 2v50 50h-197c-173 0-203-3-240-19z"/><path d="m9240 5580v-50h95 95v-180-180h60 60v180 180h100 100v50 50h-255-255z"/><path d="m9790 5580v-50l186-2c165-3 188-5 198-20 8-13 8-23 0-35-10-16-33-18-198-21l-186-2v-140-140h60 60v90 90h48c48 0 50-1 134-90l86-90h71c39 0 71 3 71 8 0 4-34 41-75 82-77 77-86 90-60 90 56 0 115 69 115 133 0 62-22 102-72 126-41 19-60 21-241 21h-197z"/><path d="m10342 5451c3-196 6-206 72-255 25-19 42-21 179-21 135 0 156 2 187 20 62 36 70 67 70 263v172h-60-60v-160c0-202 1-200-129-200-74 0-92 3-115 21l-26 20v160 159h-61-60z"/><path d="m10994 5619c-41-12-82-53-95-98-6-21-9-84-7-143 3-119 15-145 79-183 30-18 56-20 232-23l197-4v57 56l-176-1c-222-2-216-6-212 129 4 124-2 121 221 121h167v50 50l-187-1c-104 0-202-5-219-10z"/><path d="m11450 5580v-50h95 95v-180-180h60 60v180 180h100 100v50 50h-255-255z"/><path d="m12010 5400v-230h54c40 0 55 4 60 16 8 21 8 373 0 413-6 30-8 31-60 31h-54z"/><path d="m12274 5623c-12-2-39-19-60-37l-39-34-3-133c-3-154 7-188 68-224 29-17 57-21 163-24 146-4 202 7 241 48 38 40 46 73 46 189 0 130-14 166-80 200-40 20-57 22-180 21-74-1-145-4-156-6zm279-112c14-11 17-32 17-106 0-122-2-124-144-126-137-2-139 0-143 116-3 81-1 87 22 111 25 25 30 26 129 22 68-2 109-8 119-17z"/><path d="m6132 5228 3-53 58-3 57-3v56 55h-61-60z"/><path d="m6854 5267c-3-8-4-32-2-53l3-39 58-3 58-3-3 53-3 53-53 3c-38 2-54-1-58-11z"/></g></svg>